<svg width="156" height="158" viewBox="0 0 156 158" fill="none" xmlns="http://www.w3.org/2000/svg">
<g id="Group 241">
<ellipse id="Ellipse 24" cx="77.6305" cy="78.8067" rx="77.6305" ry="78.8067" fill="#D9D9D9"/>
<g id="Ellipse 33">
<path d="M77.1516 80.9275C88.3718 80.9275 97.4676 71.7636 97.4676 60.4594C97.4676 49.1552 88.3718 39.9913 77.1516 39.9913C65.9313 39.9913 56.8355 49.1552 56.8355 60.4594C56.8355 71.7636 65.9313 80.9275 77.1516 80.9275Z" fill="#642514"/>
<path d="M110.282 119.974H44.6458L42.4579 117.77C42.4579 117.77 42.2021 113.918 42.4579 111.472C42.7465 108.713 43.0658 107.147 44.0207 104.544C45.0814 101.654 45.9429 100.087 47.7714 97.6168C49.1654 95.7334 50.0204 94.6845 51.8346 93.2083C53.7074 91.6844 54.9872 91.1286 57.148 90.0594C59.9563 88.6698 61.6361 88.0735 64.6493 87.2253C74.054 84.5781 89.6538 87.2253 89.6538 87.2253C89.6538 87.2253 94.1661 88.6616 96.8425 90.0594C98.8872 91.1272 100.037 91.7688 101.843 93.2083C103.739 94.7188 104.708 95.7169 106.219 97.6168C108.17 100.069 108.962 101.698 110.282 104.544C111.492 107.152 112.366 108.624 112.783 111.472C113.086 113.54 112.783 117.77 112.783 117.77L110.282 119.974Z" fill="#642514"/>
</g>
</g>
</svg>
